<svg xmlns="http://www.w3.org/2000/svg" viewBox="0 0 960 360" font-family="Arial, sans-serif">
  <rect width="960" height="360" fill="#ffffff"/>
  <text x="480" y="34" text-anchor="middle" font-size="18" font-weight="bold" fill="#232f3e">FleetSense — Ingestion, Alerting &amp; Dashboard</text>
  <defs>
    <marker id="a" markerWidth="10" markerHeight="10" refX="8" refY="3" orient="auto" markerUnits="strokeWidth">
      <path d="M0,0 L8,3 L0,6 z" fill="#232f3e"/>
    </marker>
  </defs>
  <rect x="20" y="90" width="150" height="80" rx="8" fill="#e8f0fe" stroke="#4285f4" stroke-width="2"/>
  <text x="95" y="118" text-anchor="middle" font-size="13" font-weight="bold" fill="#232f3e">Simulators</text>
  <text x="95" y="138" text-anchor="middle" font-size="11" fill="#555">sim-vehicle-01/02/03</text>
  <text x="95" y="154" text-anchor="middle" font-size="11" fill="#555">Python + MQTT</text>
  <rect x="230" y="90" width="150" height="80" rx="8" fill="#fef7e0" stroke="#f9ab00" stroke-width="2"/>
  <text x="305" y="118" text-anchor="middle" font-size="13" font-weight="bold" fill="#232f3e">AWS IoT Core</text>
  <text x="305" y="138" text-anchor="middle" font-size="11" fill="#555">Rule: fleet/+/telemetry</text>
  <rect x="440" y="90" width="150" height="80" rx="8" fill="#fce8e6" stroke="#ea4335" stroke-width="2"/>
  <text x="515" y="118" text-anchor="middle" font-size="13" font-weight="bold" fill="#232f3e">Lambda</text>
  <text x="515" y="138" text-anchor="middle" font-size="11" fill="#555">fleetsense-ingest</text>
  <text x="515" y="154" text-anchor="middle" font-size="11" fill="#555">write + alert check</text>
  <rect x="650" y="90" width="150" height="80" rx="8" fill="#e6f4ea" stroke="#34a853" stroke-width="2"/>
  <text x="725" y="118" text-anchor="middle" font-size="13" font-weight="bold" fill="#232f3e">DynamoDB</text>
  <text x="725" y="138" text-anchor="middle" font-size="11" fill="#555">VehicleTelemetry</text>
  <text x="725" y="154" text-anchor="middle" font-size="11" fill="#555">PK vehicle_id / SK ts</text>
  <rect x="650" y="250" width="150" height="70" rx="8" fill="#f3e8fd" stroke="#a142f4" stroke-width="2"/>
  <text x="725" y="278" text-anchor="middle" font-size="13" font-weight="bold" fill="#232f3e">Streamlit</text>
  <text x="725" y="298" text-anchor="middle" font-size="11" fill="#555">live dashboard</text>
  <rect x="440" y="250" width="150" height="70" rx="8" fill="#fde8f0" stroke="#d81b60" stroke-width="2"/>
  <text x="515" y="278" text-anchor="middle" font-size="13" font-weight="bold" fill="#232f3e">Amazon SNS</text>
  <text x="515" y="298" text-anchor="middle" font-size="11" fill="#555">email alert</text>
  <line x1="170" y1="130" x2="228" y2="130" stroke="#232f3e" stroke-width="2" marker-end="url(#a)"/>
  <line x1="380" y1="130" x2="438" y2="130" stroke="#232f3e" stroke-width="2" marker-end="url(#a)"/>
  <line x1="590" y1="130" x2="648" y2="130" stroke="#232f3e" stroke-width="2" marker-end="url(#a)"/>
  <line x1="725" y1="170" x2="725" y2="248" stroke="#232f3e" stroke-width="2" marker-end="url(#a)"/>
  <line x1="500" y1="170" x2="515" y2="248" stroke="#232f3e" stroke-width="2" marker-end="url(#a)"/>
  <text x="450" y="345" text-anchor="middle" font-size="11" fill="#999">Day 4 — Module 1 shipped: ingest · store · alert · visualize</text>
</svg>
